<svg width="291" height="325" viewBox="0 0 291 325" fill="none" xmlns="http://www.w3.org/2000/svg">
<g clip-path="url(#clip0_310_3)">
<path d="M212.347 101.761C226.145 158.691 243.837 277.357 164.782 315.973H67.8267C-9.61282 278.144 5.6762 163.415 19.4322 105.283H127.988" fill="#FFBB00"/>
<path d="M46.4895 213.716C41.4346 190.596 42.9677 164.7 46.7795 141.704" stroke="white" stroke-width="16.5735" stroke-linecap="round" stroke-linejoin="round"/>
<path d="M76.8598 277.606C66.07 268.726 58.0831 256.911 53.8641 243.589" stroke="white" stroke-width="16.5735" stroke-linecap="round" stroke-linejoin="round"/>
<path d="M213.052 104.703H278.062C278.062 104.703 308.889 261.736 210.608 267.786" stroke="#203040" stroke-width="16.5735" stroke-linecap="round" stroke-linejoin="round"/>
<path d="M29.0034 70.6863H203.605C203.605 70.6863 270.189 264.472 164.782 315.974H67.8267C-9.61283 278.145 5.6762 163.415 19.4322 105.283H127.988" stroke="#203040" stroke-width="16.5735" stroke-linecap="round" stroke-linejoin="round"/>
<path d="M29.0037 70.6851C29.0037 70.6851 12.4302 19.846 44.9971 10.8134C77.564 1.7809 93.9717 18.2715 98.2808 40.7286C98.2808 40.7286 110.711 17.6086 132.381 25.2738C150.28 31.6546 148.706 50.7141 148.706 50.7141C148.706 50.7141 160.556 27.6355 189.476 35.8394C206.381 40.6457 207.169 59.3737 203.605 70.6851" stroke="#203040" stroke-width="16.5735" stroke-linecap="round" stroke-linejoin="round"/>
</g>
<defs>
<clipPath id="clip0_310_3">
<rect width="290.947" height="324.26" fill="white"/>
</clipPath>
</defs>
</svg>
